<svg id="bold" enable-background="new 0 0 32 32" height="512" viewBox="0 0 32 32" width="512" xmlns="http://www.w3.org/2000/svg"><path d="m26 32h-20c-3.314 0-6-2.686-6-6v-20c0-3.314 2.686-6 6-6h20c3.314 0 6 2.686 6 6v20c0 3.314-2.686 6-6 6z" fill="#e3f8fa"/><path d="m20.167 9.333c.276 0 .5.224.5.5v12.333c0 .276-.224.5-.5.5h-8.334c-.276 0-.5-.224-.5-.5v-12.333c0-.276.224-.5.5-.5zm0-1.333h-8.334c-1.011 0-1.833.822-1.833 1.833v12.333c0 1.012.822 1.834 1.833 1.834h8.334c1.011 0 1.833-.822 1.833-1.833v-12.334c0-1.011-.822-1.833-1.833-1.833z" fill="#26c6da"/><g fill="#8ce1eb"><path d="m12.667 10.667h3.333c.368 0 .667.299.667.667s-.299.666-.667.666h-3.333c-.369 0-.667-.299-.667-.667s.298-.666.667-.666z"/><path d="m17.733 20.2-1.333 1c-.118.089-.259.133-.4.133s-.282-.045-.4-.133l-1.333-1c-.295-.221-.354-.639-.133-.933.221-.293.639-.354.933-.133l.933.7.933-.7c.296-.221.713-.16.933.133.222.294.162.712-.133.933z"/><path d="m19.333 17.333h-6.667c-.368 0-.667-.299-.667-.667s.299-.666.668-.666h6.667c.368 0 .666.299.666.667s-.298.666-.667.666z"/><path d="m19.333 14.667h-6.667c-.368 0-.666-.299-.666-.667s.299-.667.667-.667h6.667c.368 0 .666.299.666.667s-.298.667-.667.667z"/></g></svg>